<svg width="312" height="311" viewBox="0 0 312 311" fill="none" xmlns="http://www.w3.org/2000/svg">
<g id="note-double" class="note-animate-two">
<g id="Vector" filter="url(#filter0_dd_2_210)">
<path d="M100.954 25.454V173.34C96.0279 171.752 90.8811 170.958 85.706 170.986C63.7472 170.986 45.9142 186.545 45.9142 208.534C45.9142 230.522 63.7472 245.91 85.706 245.91C107.665 245.91 125.608 229.719 125.608 206.228V103.531H241.412V173.34C236.486 171.752 231.339 170.957 226.164 170.986C204.205 170.986 186.372 186.545 186.372 208.534C186.372 230.522 204.205 245.91 226.164 245.91C248.122 245.91 266.066 229.719 266.066 206.228V25.454H100.954ZM241.416 80.5679H125.612V50.1451H241.416V80.5679Z" fill="white" fill-opacity="0.3" shape-rendering="crispEdges"/>
</g>
</g>
<defs>
<filter id="filter0_dd_2_210" x="0.91423" y="0.454041" width="310.151" height="310.455" filterUnits="userSpaceOnUse" color-interpolation-filters="sRGB">
<feFlood flood-opacity="0" result="BackgroundImageFix"/>
<feColorMatrix in="SourceAlpha" type="matrix" values="0 0 0 0 0 0 0 0 0 0 0 0 0 0 0 0 0 0 127 0" result="hardAlpha"/>
<feOffset dy="20"/>
<feGaussianBlur stdDeviation="22.5"/>
<feComposite in2="hardAlpha" operator="out"/>
<feColorMatrix type="matrix" values="0 0 0 0 0 0 0 0 0 0 0 0 0 0 0 0 0 0 0.05 0"/>
<feBlend mode="normal" in2="BackgroundImageFix" result="effect1_dropShadow_2_210"/>
<feColorMatrix in="SourceAlpha" type="matrix" values="0 0 0 0 0 0 0 0 0 0 0 0 0 0 0 0 0 0 127 0" result="hardAlpha"/>
<feOffset dy="4"/>
<feGaussianBlur stdDeviation="2"/>
<feComposite in2="hardAlpha" operator="out"/>
<feColorMatrix type="matrix" values="0 0 0 0 0 0 0 0 0 0 0 0 0 0 0 0 0 0 0.25 0"/>
<feBlend mode="normal" in2="effect1_dropShadow_2_210" result="effect2_dropShadow_2_210"/>
<feBlend mode="normal" in="SourceGraphic" in2="effect2_dropShadow_2_210" result="shape"/>
</filter>
</defs>
</svg>
