<svg width="480" height="198" viewBox="0 0 480 198" fill="none" xmlns="http://www.w3.org/2000/svg">
<g id="Notes">
<g id="noteOne">
<path id="Vector" d="M32 96H30V184H32V96Z" fill="black"/>
<path id="Vector_2" d="M1.32325 193.393C-2.20421 188.151 1.57522 180.615 9.63798 176.574C17.7007 172.532 27.1493 173.297 30.6768 178.54C34.2042 183.782 30.4248 191.318 22.362 195.469C14.2993 199.51 4.85071 198.636 1.32325 193.393V193.393Z" fill="black"/>
</g>
<g id="noteTwo">
<path id="Vector_3" d="M88 72H86V160H88V72Z" fill="black"/>
<path id="Vector_4" d="M57.3233 169.393C53.7958 164.151 57.5752 156.615 65.638 152.574C73.7007 148.532 83.1493 149.297 86.6768 154.54C90.2042 159.782 86.4248 167.318 78.362 171.469C70.2993 175.51 60.8507 174.636 57.3233 169.393V169.393Z" fill="black"/>
</g>
<g id="noteThree">
<path id="Vector_5" d="M144 48H142V136H144V48Z" fill="black"/>
<path id="Vector_6" d="M113.323 145.393C109.796 140.151 113.575 132.615 121.638 128.574C129.701 124.532 139.149 125.297 142.677 130.54C146.204 135.782 142.425 143.318 134.362 147.469C126.299 151.51 116.851 150.636 113.323 145.393V145.393Z" fill="black"/>
</g>
<g id="noteFour">
<path id="Vector_7" d="M200 24H198V112H200V24Z" fill="black"/>
<path id="Vector_8" d="M169.323 121.393C165.796 116.151 169.575 108.615 177.638 104.574C185.701 100.532 195.149 101.297 198.677 106.54C202.204 111.782 198.425 119.318 190.362 123.469C182.299 127.51 172.851 126.636 169.323 121.393V121.393Z" fill="black"/>
</g>
<g id="noteFive">
<path id="Vector_9" d="M256 0H254V88H256V0Z" fill="black"/>
<path id="Vector_10" d="M225.323 97.3935C221.796 92.1509 225.575 84.6147 233.638 80.5736C241.701 76.5324 251.149 77.297 254.677 82.5395C258.204 87.7821 254.425 95.3183 246.362 99.4687C238.299 103.51 228.851 102.636 225.323 97.3935V97.3935ZM253.417 83.1949C252.031 81.0104 244.976 82.2119 237.669 85.9254C237.543 85.9254 237.543 86.0346 237.417 86.0346C237.291 86.0346 237.165 86.1438 237.165 86.1438C229.985 89.8573 225.323 94.5537 226.835 96.6289C228.221 98.8133 235.276 97.6119 242.583 93.8984C242.709 93.8984 242.709 93.7892 242.835 93.7892L242.961 93.68C250.141 90.0757 254.803 85.3793 253.417 83.1949V83.1949Z" fill="black"/>
</g>
<g id="noteSix">
<path id="Vector_11" d="M312 24H310V112H312V24Z" fill="black"/>
<path id="Vector_12" d="M281.323 121.393C277.796 116.151 281.575 108.615 289.638 104.574C297.701 100.532 307.149 101.297 310.677 106.54C314.204 111.782 310.425 119.318 302.362 123.469C294.299 127.51 284.851 126.636 281.323 121.393V121.393Z" fill="black"/>
</g>
<g id="noteSeven">
<path id="Vector_13" d="M368 48H366V136H368V48Z" fill="black"/>
<path id="Vector_14" d="M337.323 145.393C333.796 140.151 337.575 132.615 345.638 128.574C353.701 124.532 363.149 125.297 366.677 130.54C370.204 135.782 366.425 143.318 358.362 147.469C350.299 151.51 340.851 150.636 337.323 145.393V145.393Z" fill="black"/>
</g>
<g id="noteEight">
<path id="Vector_15" d="M424 71H422V159H424V71Z" fill="black"/>
<path id="Vector_16" d="M393.323 168.393C389.796 163.151 393.575 155.615 401.638 151.574C409.701 147.532 419.149 148.297 422.677 153.54C426.204 158.782 422.425 166.318 414.362 170.469C406.299 174.51 396.851 173.636 393.323 168.393V168.393Z" fill="black"/>
</g>
<g id="noteNine">
<path id="Vector_17" d="M480 95H478V183H480V95Z" fill="black"/>
<path id="Vector_18" d="M449.323 192.393C445.796 187.151 449.575 179.615 457.638 175.574C465.701 171.532 475.149 172.297 478.677 177.54C482.204 182.782 478.425 190.318 470.362 194.469C462.299 198.51 452.851 197.636 449.323 192.393V192.393Z" fill="black"/>
</g>
</g>
</svg>
