<svg  id="n1" width="204" height="260" viewBox="0 0 204 260" fill="none" xmlns="http://www.w3.org/2000/svg">
<g id="Note-1" class="note-animate-one">
<g id="Vector" filter="url(#filter0_dd_2_216)">
<path d="M101.829 25.1403V124.389C94.6778 120.258 86.3648 118.606 78.18 119.69C69.9953 120.773 62.3965 124.531 56.5628 130.381C50.7291 136.231 46.9868 143.845 45.9166 152.043C44.8464 160.24 46.5081 168.562 50.6438 175.717C54.7796 182.872 61.1582 188.46 68.7897 191.614C76.4212 194.767 84.879 195.311 92.8505 193.16C100.822 191.008 107.862 186.282 112.877 179.715C117.892 173.148 120.602 165.107 120.587 156.84V62.75H158.19V25.1403H101.829Z" fill="white" fill-opacity="0.3" shape-rendering="crispEdges"/>
</g>
</g>
<defs>
<filter id="filter0_dd_2_216" x="0.600189" y="0.14032" width="202.59" height="259.313" filterUnits="userSpaceOnUse" color-interpolation-filters="sRGB">
<feFlood flood-opacity="0" result="BackgroundImageFix"/>
<feColorMatrix in="SourceAlpha" type="matrix" values="0 0 0 0 0 0 0 0 0 0 0 0 0 0 0 0 0 0 127 0" result="hardAlpha"/>
<feOffset dy="20"/>
<feGaussianBlur stdDeviation="22.5"/>
<feComposite in2="hardAlpha" operator="out"/>
<feColorMatrix type="matrix" values="0 0 0 0 0 0 0 0 0 0 0 0 0 0 0 0 0 0 0.05 0"/>
<feBlend mode="normal" in2="BackgroundImageFix" result="effect1_dropShadow_2_216"/>
<feColorMatrix in="SourceAlpha" type="matrix" values="0 0 0 0 0 0 0 0 0 0 0 0 0 0 0 0 0 0 127 0" result="hardAlpha"/>
<feOffset dy="4"/>
<feGaussianBlur stdDeviation="2"/>
<feComposite in2="hardAlpha" operator="out"/>
<feColorMatrix type="matrix" values="0 0 0 0 0 0 0 0 0 0 0 0 0 0 0 0 0 0 0.25 0"/>
<feBlend mode="normal" in2="effect1_dropShadow_2_216" result="effect2_dropShadow_2_216"/>
<feBlend mode="normal" in="SourceGraphic" in2="effect2_dropShadow_2_216" result="shape"/>
</filter>
</defs>
</svg>
